<?xml version="1.0" encoding="UTF-8"?>
<svg width="180px" height="120px" viewBox="0 0 180 120" version="1.1" xmlns="http://www.w3.org/2000/svg" xmlns:xlink="http://www.w3.org/1999/xlink">
    <title>编组 2</title>
    <defs>
        <linearGradient x1="50%" y1="100%" x2="50%" y2="0%" id="linearGradient-1">
            <stop stop-color="#BFC5C2" stop-opacity="0.107244318" offset="0%"></stop>
            <stop stop-color="#D4D9D7" offset="100%"></stop>
        </linearGradient>
        <linearGradient x1="49.9996412%" y1="-0.000332929782%" x2="49.9996412%" y2="100.00115%" id="linearGradient-2">
            <stop stop-color="#EBEDEC" offset="0%"></stop>
            <stop stop-color="#FFFFFF" offset="100%"></stop>
        </linearGradient>
        <linearGradient x1="14.501624%" y1="-3.70834055%" x2="85.4977811%" y2="103.706534%" id="linearGradient-3">
            <stop stop-color="#D4D9D7" offset="0%"></stop>
            <stop stop-color="#BFC5C2" offset="100%"></stop>
        </linearGradient>
        <linearGradient x1="23.2597903%" y1="-3.70834055%" x2="76.7397616%" y2="103.706534%" id="linearGradient-4">
            <stop stop-color="#D4D9D7" offset="0%"></stop>
            <stop stop-color="#BFC5C2" offset="100%"></stop>
        </linearGradient>
        <linearGradient x1="49.9996412%" y1="100.00115%" x2="49.9996412%" y2="-0.000332929782%" id="linearGradient-5">
            <stop stop-color="#EBEDEC" offset="0%"></stop>
            <stop stop-color="#FFFFFF" offset="100%"></stop>
        </linearGradient>
        <linearGradient x1="14.4454878%" y1="42.9559909%" x2="85.5539164%" y2="57.0437722%" id="linearGradient-6">
            <stop stop-color="#D4D9D7" offset="0%"></stop>
            <stop stop-color="#ECEEED" offset="100%"></stop>
        </linearGradient>
        <linearGradient x1="14.8440081%" y1="-3.70834055%" x2="85.1554028%" y2="103.706534%" id="linearGradient-7">
            <stop stop-color="#D4D9D7" offset="0%"></stop>
            <stop stop-color="#BFC5C2" offset="100%"></stop>
        </linearGradient>
    </defs>
    <g id="志愿参考" stroke="none" stroke-width="1" fill="none" fill-rule="evenodd" opacity="0.64390346">
        <g id="身份未通过" transform="translate(-630.000000, -275.000000)">
            <g id="编组-2" transform="translate(630.000000, 275.000000)">
                <path d="M0,120 C22.3048549,93.3333333 52.3048549,80 90,80 C127.695145,80 157.695145,93.3333333 180,120" id="路径-19备份-2" fill="url(#linearGradient-1)" opacity="0.277420015"></path>
                <ellipse id="椭圆形备份-3" fill="url(#linearGradient-2)" fill-rule="nonzero" cx="89.2311688" cy="9.03050847" rx="9.02337662" ry="9.03050847"></ellipse>
                <ellipse id="椭圆形备份-4" fill="url(#linearGradient-3)" fill-rule="nonzero" cx="89.2311688" cy="9.03050847" rx="4.51168831" ry="4.51525424"></ellipse>
                <path d="M120.838854,101.302965 L59.0505379,101.302965 C54.9530542,101.302965 51.6337662,97.9627306 51.6337662,93.8442742 L51.6337662,20.4093987 C51.6337662,16.2887563 54.9552279,12.950708 59.0505379,12.950708 L120.838854,12.950708 C124.936338,12.950708 128.255626,16.2909423 128.255626,20.4093987 L128.255626,93.8442742 C128.255626,97.9627306 124.934164,101.302965 120.838854,101.302965 Z" id="路径" fill="url(#linearGradient-4)" fill-rule="nonzero"></path>
                <path d="M118.682223,93.2971945 L61.2152846,93.2971945 C60.354487,93.2971945 59.6545455,92.595483 59.6545455,91.7276342 L59.6545455,22.6407468 C59.6545455,21.775084 60.3523133,21.0711864 61.2152846,21.0711864 L118.682223,21.0711864 C119.543021,21.0711864 120.242962,21.772898 120.242962,22.6407468 L120.242962,91.7298202 C120.242962,92.595483 119.543021,93.2971945 118.682223,93.2971945 Z" id="路径" fill="url(#linearGradient-5)" fill-rule="nonzero"></path>
                <path d="M107.495426,23.6003379 L72.2352839,23.6003379 C70.8625525,23.6003379 69.7496441,22.5536723 69.7496441,21.262649 L69.7496441,11.3681974 C69.7496441,10.0771741 70.8625525,9.03050847 72.2352839,9.03050847 L107.495426,9.03050847 C108.868157,9.03050847 109.981066,10.0771741 109.981066,11.3681974 L109.981066,21.262649 C109.981066,22.5536723 108.868157,23.6003379 107.495426,23.6003379 Z" id="路径" fill="url(#linearGradient-6)" fill-rule="nonzero"></path>
                <g id="编组" transform="translate(72.688312, 37.125424)" fill="#959E9A" fill-rule="nonzero">
                    <path d="M20.1141589,23.2947616 L-14.1007545,23.2947616 C-15.8556449,23.2947616 -17.2791772,21.9476502 -17.2791772,20.2869694 L-17.2791772,20.2869694 C-17.2791772,18.6262885 -15.8556449,17.2791772 -14.1007545,17.2791772 L20.1163389,17.2791772 C21.8712293,17.2791772 23.2947616,18.6262885 23.2947616,20.2869694 L23.2947616,20.2869694 C23.2925816,21.9476502 21.8690493,23.2947616 20.1141589,23.2947616 Z" id="路径" transform="translate(3.007792, 20.286969) rotate(-90.000000) translate(-3.007792, -20.286969) "></path>
                    <path d="M30.2278762,27.217408 L3.85825553,27.217408 C2.1033651,27.217408 0.679832864,25.8702966 0.679832864,24.2096158 C0.679832864,22.5489349 2.1033651,21.2018235 3.85825553,21.2018235 L30.2300562,21.2018235 C31.9849466,21.2018235 33.4084788,22.5489349 33.4084788,24.2096158 C33.4062988,25.8723596 31.9827666,27.217408 30.2278762,27.217408 Z" id="路径" transform="translate(17.044156, 24.209616) rotate(-90.000000) translate(-17.044156, -24.209616) "></path>
                    <path d="M40.483313,27.9195056 L25.890538,27.9195056 C23.3820634,23.909116 17.6756136,21.9039212 18.5967168,21.9039212 L40.485493,21.9039212 C42.2403834,21.9039212 43.6639157,23.2510325 43.6639157,24.9117134 C43.6617357,26.5744573 42.2382035,27.9195056 40.483313,27.9195056 Z" id="路径备份" transform="translate(31.080519, 24.911713) rotate(-90.000000) translate(-31.080519, -24.911713) "></path>
                </g>
                <ellipse id="椭圆形" fill="url(#linearGradient-7)" fill-rule="nonzero" cx="121.895288" cy="86.2741961" rx="19.9722446" ry="20.085126"></ellipse>
                <g id="搜索" transform="translate(110.863359, 75.155119)" fill="#FFFFFF" fill-rule="nonzero">
                    <path d="M16.5961096,18.7515272 C14.863301,20.0533721 12.7113329,20.824478 10.3798241,20.824478 C4.64720553,20.824478 0,16.1627597 0,10.412239 C0,4.66171818 4.64720553,0 10.3798241,0 C16.1124425,0 20.7596481,4.66171818 20.7596481,10.412239 C20.7596481,12.7510288 19.9909428,14.9097172 18.6931508,16.6479372 L21.9183761,19.8832345 C22.4947928,20.4614514 22.4966694,21.3970434 21.9135503,21.9819837 C21.3344684,22.562874 20.3872562,22.5545131 19.8213349,21.9868245 L16.5961096,18.7515272 Z M10.3798241,17.8495525 C14.4745516,17.8495525 17.7939841,14.5197538 17.7939841,10.412239 C17.7939841,6.30472412 14.4745516,2.97492542 10.3798241,2.97492542 C6.28509654,2.97492542 2.96566402,6.30472412 2.96566402,10.412239 C2.96566402,14.5197538 6.28509654,17.8495525 10.3798241,17.8495525 Z" id="形状"></path>
                </g>
                <path d="M157.660546,24.6432497 C154.76455,24.6421057 151.868996,25.7609595 148.973885,27.9998112 C151.212736,25.1046997 152.33159,22.2091458 152.330446,19.3131495 C152.329302,16.4171532 151.20816,13.5207144 148.967021,10.6238333 C151.863902,12.8649729 154.760341,13.9861148 157.656337,13.9872588 C160.552333,13.9884028 163.447887,12.869549 166.342998,10.6306973 C164.104147,13.5258088 162.985293,16.4213626 162.986437,19.317359 C162.987581,22.2133553 164.108723,25.109794 166.349863,28.0066752 C163.452981,25.7655356 160.556543,24.6443937 157.660546,24.6432497 Z" id="星形备份-2" fill="#EBEDEC" transform="translate(157.658442, 19.315254) rotate(45.000000) translate(-157.658442, -19.315254) "></path>
                <path d="M144.87664,38.949273 C143.06722,38.9485582 141.258076,39.6476186 139.449209,41.0464542 C140.848045,39.2375872 141.547105,37.4284438 141.546391,35.6190239 C141.545676,33.809604 140.845186,31.9999077 139.444921,30.189935 C141.254893,31.5902001 143.06459,32.29069 144.87401,32.2914048 C146.683429,32.2921196 148.492573,31.5930592 150.30144,30.1942236 C148.902604,32.0030906 148.203544,33.8122341 148.204259,35.6216539 C148.204973,37.4310738 148.905463,39.2407701 150.305729,41.0507429 C148.495756,39.6504777 146.68606,38.9499878 144.87664,38.949273 Z" id="星形备份-3" fill="#EBEDEC" transform="translate(144.875325, 35.620339) rotate(45.000000) translate(-144.875325, -35.620339) "></path>
            </g>
        </g>
    </g>
</svg>