<?xml version="1.0" encoding="UTF-8" standalone="no"?>
<svg data-v-1e121de1="" version="1.0" xmlns="http://www.w3.org/2000/svg" xmlns:xlink="http://www.w3.org/1999/xlink" width="100%" height="100%" viewBox="0 0 340.000000 250.000000" preserveAspectRatio="xMidYMid meet" color-interpolation-filters="sRGB" class="el-tooltip" style="margin: auto;"><rect data-v-1e121de1="" x="0" y="0" width="100%" height="100%" fill="#fff" fill-opacity="1" class="background"></rect> <rect data-v-1e121de1="" x="0" y="0" width="100%" height="100%" fill="url(#watermark)" fill-opacity="1" class="watermarklayer"></rect> <g data-v-1e121de1="" fill="#f29716" class="icon-text-wrapper icon-svg-group iconsvg" transform="translate(51.997589111328125,100.92638969421387)"><g class="iconsvg-imagesvg" transform="translate(0,0)"><rect fill="#f29716" fill-opacity="0" stroke-width="2" x="0" y="0" width="60" height="48.14721806260071" class="image-rect"></rect> <svg x="0" y="0" width="60" height="48.14721806260071" filtersec="colorsb4036194228" class="image-svg-svg primary"><svg version="1.1" id="图层_1" xmlns="http://www.w3.org/2000/svg" xmlns:xlink="http://www.w3.org/1999/xlink" x="0px" y="0px" viewBox="0.6424999237060547 0.8446848392486572 95.58499908447266 76.70252990722656" enable-background="new 0 0 97 79" xml:space="preserve">
<path fill="#F29716" d="M26.12,73.73c-1.98-1.97-1.98-5.18,0-7.15l35.02-38.98c8.03-8.03,18.95,3.28,11.11,11.11L33.27,73.73
	C31.29,75.7,28.09,75.7,26.12,73.73L26.12,73.73z"></path>
<path fill="#00579D" d="M2.12,49.73c-1.97-1.97-1.97-5.18,0-7.15L37.15,3.6c8.03-8.03,18.95,3.28,11.11,11.11L9.27,49.73
	C7.3,51.71,4.1,51.71,2.12,49.73L2.12,49.73z"></path>
<path fill="#66BC8B" d="M70.84,4.84c-1.97-1.97-5.18-1.98-7.15,0L24.74,39.83c-8.02,8.02,3.29,18.94,11.11,11.11l34.99-38.95
	C72.82,10.02,72.82,6.82,70.84,4.84L70.84,4.84z"></path>
<path fill="#FBDF5E" d="M94.75,28.75c-1.98-1.97-5.18-1.98-7.15,0L48.64,63.74c-8.02,8.02,3.29,18.94,11.11,11.11L94.75,35.9
	C96.72,33.92,96.72,30.72,94.75,28.75L94.75,28.75z"></path>
</svg></svg> <!----></g> <g transform="translate(67,5.148401260375977)" mask="url(#8c0ca6a1-4cbb-432a-a107-875b11ae8651)"><g fill-rule="" class="tp-name iconsvg-namesvg" transform="translate(0,0)"><g><path d="M19.32-17.21L24.96-17.21L24.96-16.38L22.78-16.08L18.26 0.09L16.59 0.09L12.46-13.15L8.47 0.09L6.77 0.09L2.04-16.19L0.26-16.38L0.26-17.21L7.66-17.21L7.66-16.38L5.41-16.15L8.65-3.78L12.32-16.10L10.00-16.38L10.00-17.21L17.24-17.21L17.24-16.38L14.73-16.10L18.35-3.69L21.57-16.08L19.32-16.38L19.32-17.21ZM29.42-7.12L29.42-7.12L33.38-7.12Q34.15-7.12 34.43-7.52Q34.71-7.91 34.71-8.84L34.71-8.84Q34.71-10.23 34.03-11.08Q33.36-11.92 32.29-11.92L32.29-11.92Q31.11-11.92 30.31-10.73Q29.51-9.53 29.42-7.12ZM37.44-6.26L37.44-6.26L29.42-6.26Q29.49-3.71 30.61-2.44Q31.74-1.16 33.52-1.16L33.52-1.16Q35.68-1.16 37.00-2.95L37.00-2.95L37.47-2.62Q36.77-1.18 35.48-0.41Q34.19 0.37 32.48 0.37L32.48 0.37Q29.67 0.37 27.93-1.38Q26.19-3.13 26.19-6.22L26.19-6.22Q26.19-9.21 28.06-11.00Q29.93-12.78 32.50-12.78L32.50-12.78Q34.84-12.78 36.22-11.36Q37.61-9.93 37.61-7.70L37.61-7.70Q37.61-6.82 37.44-6.26ZM44.15-10.32L44.15-10.32L44.15-2.11Q45.24-1.11 46.56-1.11L46.56-1.11Q49.81-1.11 49.81-6.26L49.81-6.26Q49.81-8.82 48.95-10.08Q48.09-11.34 46.65-11.34L46.65-11.34Q45.31-11.34 44.15-10.32ZM44.19-18.79L44.10-15.10L44.10-11.02Q45.77-12.78 48.02-12.78L48.02-12.78Q50.23-12.78 51.64-11.05Q53.06-9.33 53.06-6.29L53.06-6.29Q53.06-3.39 51.58-1.51Q50.11 0.37 47.77 0.37L47.77 0.37Q45.52 0.37 44.05-1.35L44.05-1.35L43.68 0.28L39.39 0L39.39-0.72L41.08-0.90Q41.13-3.60 41.13-5.45L41.13-5.45L41.13-17.19L39.25-17.35L39.25-18.00L43.85-19.00L44.19-18.79ZM59.50-19.42L59.50-19.42L59.69-19.58Q62.94-19.30 63.82-17.70L63.82-17.70Q64.33-16.70 63.70-15.89L63.70-15.89Q63.08-15.10 62.03-15.45L62.03-15.45Q61.75-15.54 61.48-15.73L61.48-15.73Q61.13-17.70 59.50-19.42ZM59.25-4.85L59.25-4.85L62.38-4.85L62.38-7.91L59.30-7.91L59.30-6.38Q59.30-5.36 59.25-4.85ZM62.38-8.58L62.38-11.37L59.30-11.37L59.30-8.58L62.38-8.58ZM59.71-12.04L64.96-12.04L64.96-0.90Q64.96 0.53 64.38 1.18L64.38 1.18Q63.80 1.86 61.94 2.00L61.94 2.00Q61.89 0.79 61.59 0.26L61.59 0.26Q61.20-0.35 60.22-0.53L60.22-0.53L60.22-0.84Q61.57-0.74 61.99-0.74L61.99-0.74Q62.38-0.74 62.38-1.16L62.38-1.16L62.38-4.18L59.20-4.18Q58.99-2.20 58.14-0.60L58.14-0.60Q57.28 0.97 55.35 2.16L55.35 2.16L55.14 1.95Q55.86 0.86 56.23-0.65L56.23-0.65Q56.60-2.18 56.65-3.32L56.65-3.32Q56.72-4.45 56.72-6.38L56.72-6.38L56.72-13.11L59.71-12.04ZM66.95-12.55L69.43-12.25L69.43-2.90Q69.43-2.74 68.76-2.51L68.76-2.51Q68.09-2.30 67.42-2.30L67.42-2.30L66.95-2.30L66.95-12.55ZM71.57-1.14L71.57-1.14L71.57-13.27L74.17-12.94L74.17-1.00Q74.17 0.51 73.49 1.18L73.49 1.18Q72.84 1.88 70.71 2.06L70.71 2.06Q70.64 0.81 70.15 0.28L70.15 0.28Q69.55-0.32 68.04-0.58L68.04-0.58L68.04-0.88Q70.59-0.74 71.08-0.74L71.08-0.74Q71.36-0.74 71.45-0.81L71.45-0.81Q71.57-0.90 71.57-1.14ZM67.88-15.13L76.56-15.13L76.56-14.48L54.91-14.48L54.73-15.13L67.14-15.13Q68.23-17.49 68.83-19.67L68.83-19.67L71.75-18.72Q70.06-16.63 67.88-15.13L67.88-15.13ZM79.85-19.32L79.85-19.32L80.08-19.42Q82.84-18.51 83.33-16.91L83.33-16.91Q83.65-15.87 82.91-15.24L82.91-15.24Q82.17-14.59 81.22-15.15L81.22-15.15Q81.03-15.26 80.85-15.45L80.85-15.45Q80.87-17.21 79.85-19.32ZM86.67-14.43L86.67-13.76L78.11-13.76L77.92-14.43L86.67-14.43ZM78.67-12.78L78.67-12.78L79.01-12.90Q81.75-10.05 81.61-7.33L81.61-7.33Q81.54-5.85 80.73-5.29L80.73-5.29Q80.01-4.78 79.48-5.54L79.48-5.54Q79.41-5.64 79.36-5.73L79.36-5.73Q79.53-6.82 79.36-9.05L79.36-9.05Q79.22-11.27 78.67-12.78ZM83.12-13.11L83.12-13.11L85.46-12.32Q84.30-7.61 82.98-4.34L82.98-4.34Q83.84-4.57 86.02-5.27L86.02-5.27L86.07-5.01Q83.07-2.62 79.71-0.60L79.71-0.60Q79.57-0.09 79.13 0.07L79.13 0.07L77.69-3.06Q79.06-3.29 82.19-4.11L82.19-4.11Q82.82-9.00 83.12-13.11ZM96.37-1.18L96.37-7.35L95.00-7.35L95.00-0.86Q95.42-0.79 96.04-0.79L96.04-0.79Q96.37-0.79 96.37-1.18L96.37-1.18ZM99.22-10.49L99.22-10.49L93.47-10.49Q92.08-8.91 91.08-8.00L91.08-8.00L98.78-8.00L98.78-0.90Q98.78 0.53 98.29 1.16L98.29 1.16Q97.81 1.81 96.14 1.97L96.14 1.97Q96.14 0.65 95.95 0.21L95.95 0.21Q95.69-0.35 95.00-0.53L95.00-0.53L95.00-0.21Q95.00-0.16 94.84-0.05L94.84-0.05Q94.67 0.05 94.30 0.14Q93.93 0.23 93.51 0.23L93.51 0.23L93.21 0.23L93.21-7.35L91.84-7.35L91.84 0.35Q91.84 0.42 91.68 0.51L91.68 0.51Q91.52 0.63 91.15 0.72L91.15 0.72Q90.78 0.84 90.36 0.84L90.36 0.84L90.06 0.84L90.06-7.35L88.67-7.35L88.67 1.21Q88.67 1.42 87.99 1.69Q87.32 1.97 86.62 1.97L86.62 1.97L86.28 1.97L86.28-9.05L90.10-8.00Q90.43-9.28 90.57-10.49L90.57-10.49L85.93-10.49L85.74-11.16L96.37-11.16L97.34-12.41Q96.78-12.32 96.41-12.32L96.41-12.32L96.00-12.32L96.00-13.04L86.83-13.04L86.83-18.26L89.18-17.96L89.18-13.69L91.40-13.69L91.40-19.65L93.77-19.37L93.77-13.69L96.00-13.69L96.00-18.26L98.39-17.98L98.39-12.85Q98.39-12.71 97.85-12.55L97.85-12.55Q98.99-11.67 99.85-10.86L99.85-10.86Q99.75-10.49 99.22-10.49ZM113.46-0.49L122.93-0.49L122.93 0.16Q122.93 0.16 101.36 0.16L101.36 0.16L101.17-0.49L110.47-0.49L110.47-15.38L102.89-15.38L102.70-16.05L121.51-16.05L121.51-15.38L113.46-15.38L113.46-0.49ZM124.62 2.04L124.62 2.04L124.48 1.79Q126.41 0.77 128.22-0.77Q130.03-2.30 130.93-3.64L130.93-3.64L133.07-1.97Q131.65-0.53 129.36 0.46L129.36 0.46Q127.08 1.46 124.62 2.04ZM136.62-2.69L136.62-2.69L136.71-2.99Q143.09-2.32 144.74-0.28L144.74-0.28Q145.55 0.72 144.90 1.53L144.90 1.53Q144.32 2.23 143.34 2.04L143.34 2.04Q142.79 1.95 142.37 1.53L142.37 1.53Q140.35-1.11 136.62-2.69ZM139.22-7.26L131.70-7.26L131.70-4.41L139.22-4.41L139.22-7.26ZM139.22-14.62L139.22-17.38L131.70-17.38L131.70-14.62L139.22-14.62ZM139.22-7.91L139.22-10.65L131.70-10.65L131.70-7.91L139.22-7.91ZM131.70-11.30L139.22-11.30L139.22-13.94L131.70-13.94L131.70-11.30ZM141.98-4.41L146.36-4.41L146.36-3.73L124.51-3.73L124.32-4.41L128.96-4.41L128.96-19.21L132.00-18.05L141.98-18.05L141.98-4.41ZM159.12-16.77L159.12-16.12L152.37-16.12Q150.61-13.59 148.03-12.09L148.03-12.09L147.78-12.32Q148.82-13.66 149.70-15.64L149.70-15.64Q150.61-17.61 151.09-19.74L151.09-19.74L153.55-18.61Q153.20-17.45 152.79-16.77L152.79-16.77L159.12-16.77ZM154.67-9.84L158.38-9.84L158.38-9.16L154.67-9.16L154.67-8.10Q157.29-7.21 157.80-5.68L157.80-5.68Q158.10-4.71 157.43-4.15L157.43-4.15Q156.73-3.60 155.87-4.22L155.87-4.22Q155.78-4.27 155.71-4.34L155.71-4.34Q155.55-5.75 154.67-7.26L154.67-7.26L154.67 1.28Q154.67 1.46 153.92 1.76Q153.18 2.06 152.46 2.06L152.46 2.06L151.95 2.06L151.95-4.11Q150.40-1.93 148.19-0.30L148.19-0.30L147.94-0.58Q150.47-3.80 151.53-9.16L151.53-9.16L148.47-9.16L148.29-9.84L151.95-9.84L151.95-12.94L154.41-12.71Q154.22-12.78 153.99-12.97L153.99-12.97Q153.92-14.34 152.93-15.57L152.93-15.57L153.11-15.71Q155.64-15.33 156.06-14.08L156.06-14.08Q156.31-13.32 155.66-12.83L155.66-12.83Q155.45-12.69 155.25-12.62L155.25-12.62L155.50-12.60Q155.43-12.06 154.67-11.95L154.67-11.95L154.67-9.84ZM160.98-3.62L160.98-0.28L164.83-0.28L164.83-3.62L160.98-3.62ZM164.83-8.19L164.83-11.32L160.98-11.32L160.98-8.19L164.83-8.19ZM164.83-7.54L160.98-7.54L160.98-4.29L164.83-4.29L164.83-7.54ZM161.09-11.99L167.42-11.99L167.42 1.02Q167.40 1.18 166.64 1.46L166.64 1.46Q165.87 1.76 165.27 1.76L165.27 1.76L164.83 1.76L164.83 0.39L160.98 0.39L160.98 1.11Q160.98 1.35 160.28 1.67Q159.58 2.00 158.82 2.00L158.82 2.00L158.42 2.00L158.42-13.11L161.09-11.99ZM162.11-15.61L162.11-15.61L162.32-15.75Q164.97-15.54 165.52-14.31L165.52-14.31Q165.87-13.55 165.27-12.99L165.27-12.99Q164.59-12.36 163.69-12.88L163.69-12.88Q163.60-12.92 163.50-12.99L163.50-12.99Q163.34-14.38 162.11-15.61ZM161.93-16.77L169.26-16.77L169.26-16.12L161.46-16.12Q159.82-13.99 157.75-12.78L157.75-12.78L157.47-12.97Q159.24-15.61 160.19-19.72L160.19-19.72L162.72-18.54Q162.53-17.77 161.93-16.77L161.93-16.77Z" transform="translate(-0.2551855895196507, 19.74208515283843)"></path></g> <!----> <!----> <!----> <!----> <!----> <!----> <!----></g> <g fill-rule="" hollow-target="t-name" class="tp-slogan iconsvg-slogansvg" fill="#f29716" transform="translate(3.9950027465820312,28.899999618530273)"><!----> <!----> <g><path d="M5.67-7.13L5.63-7.13L3.66 0L2.44 0L0.19-8.58L1.41-8.58L3.05-1.59L3.09-1.59L5.02-8.58L6.28-8.58L8.20-1.59L8.25-1.59L9.84-8.58L11.11-8.58L8.86 0L7.64 0L5.67-7.13ZM13.50-1.03L18.66-1.03L18.66 0L12.33 0L12.33-8.58L18.56-8.58L18.56-7.59L13.50-7.59L13.50-4.92L18.19-4.92L18.19-3.89L13.50-3.89L13.50-1.03ZM23.39-7.64L21.33-7.64L21.33-4.97L23.39-4.97Q25.22-4.92 25.17-6.38L25.17-6.38Q25.17-7.64 23.39-7.64L23.39-7.64ZM23.86 0L20.16 0L20.16-8.58L23.95-8.58Q26.25-8.48 26.34-6.42L26.34-6.42Q26.34-5.16 25.22-4.64L25.22-4.64Q26.81-4.08 26.81-2.53L26.81-2.53Q26.67-0.09 23.86 0L23.86 0ZM23.58-3.98L21.33-3.98L21.33-0.98L23.81-0.98Q25.59-1.03 25.64-2.53L25.64-2.53Q25.64-3.98 23.58-3.98L23.58-3.98ZM36.98-3.89L32.77-3.89L32.77 0L31.59 0L31.59-8.58L37.55-8.58L37.55-7.59L32.77-7.59L32.77-4.92L36.98-4.92L36.98-3.89ZM42.84-3.70L40.03-3.70L40.03 0L38.86 0L38.86-8.58L42.84-8.58Q45.70-8.58 45.70-6.28L45.70-6.28Q45.70-4.88 44.48-4.22L44.48-4.22Q45.52-3.94 45.52-2.58L45.52-2.58L45.61-1.03Q45.56-0.38 46.03-0.19L46.03-0.19L46.03 0L44.58 0Q44.44-0.61 44.39-2.16L44.39-2.16Q44.44-3.70 42.84-3.70L42.84-3.70ZM42.94-7.64L40.03-7.64L40.03-4.69L42.75-4.69Q44.48-4.69 44.48-6.19L44.48-6.19Q44.48-7.64 42.94-7.64L42.94-7.64ZM54.14-4.27L54.14-4.27Q53.95-7.64 51.14-7.83L51.14-7.83Q48.28-7.69 48.14-4.27L48.14-4.27Q48.28-0.94 51.14-0.80L51.14-0.80Q53.95-0.98 54.14-4.27ZM55.31-4.27L55.31-4.27Q55.03 0 51.14 0.14L51.14 0.14Q47.20 0 46.92-4.27L46.92-4.27Q47.16-8.72 51.14-8.81L51.14-8.81Q55.03-8.67 55.31-4.27ZM58.08-8.58L62.39-1.64L62.39-8.58L63.52-8.58L63.52 0L62.20 0L57.84-6.94L57.80-6.94L57.80 0L56.67 0L56.67-8.58L58.08-8.58ZM67.50-7.59L64.59-7.59L64.59-8.58L71.53-8.58L71.53-7.59L68.63-7.59L68.63 0L67.50 0L67.50-7.59ZM77.20-1.03L82.36-1.03L82.36 0L76.03 0L76.03-8.58L82.27-8.58L82.27-7.59L77.20-7.59L77.20-4.92L81.89-4.92L81.89-3.89L77.20-3.89L77.20-1.03ZM85.27-8.58L89.58-1.64L89.58-8.58L90.70-8.58L90.70 0L89.39 0L85.03-6.94L84.98-6.94L84.98 0L83.86 0L83.86-8.58L85.27-8.58ZM96 0L92.53 0L92.53-8.58L96.05-8.58Q99.52-8.39 99.66-4.41L99.66-4.41Q99.47-0.09 96 0L96 0ZM95.86-7.64L93.70-7.64L93.70-0.98L95.95-0.98Q98.39-1.13 98.48-4.31L98.48-4.31Q98.44-7.55 95.86-7.64L95.86-7.64ZM106.64-7.59L103.73-7.59L103.73-8.58L110.67-8.58L110.67-7.59L107.77-7.59L107.77 0L106.64 0L106.64-7.59ZM118.50-4.27L118.50-4.27Q118.31-7.64 115.50-7.83L115.50-7.83Q112.64-7.69 112.50-4.27L112.50-4.27Q112.64-0.94 115.50-0.80L115.50-0.80Q118.31-0.98 118.50-4.27ZM119.67-4.27L119.67-4.27Q119.39 0 115.50 0.14L115.50 0.14Q111.56 0 111.28-4.27L111.28-4.27Q111.52-8.72 115.50-8.81L115.50-8.81Q119.39-8.67 119.67-4.27ZM127.83-4.27L127.83-4.27Q127.64-7.64 124.83-7.83L124.83-7.83Q121.97-7.69 121.83-4.27L121.83-4.27Q121.97-0.94 124.83-0.80L124.83-0.80Q127.64-0.98 127.83-4.27ZM129-4.27L129-4.27Q128.72 0 124.83 0.14L124.83 0.14Q120.89 0 120.61-4.27L120.61-4.27Q120.84-8.72 124.83-8.81L124.83-8.81Q128.72-8.67 129-4.27ZM130.36-8.58L131.53-8.58L131.53-1.03L135.89-1.03L135.89 0L130.36 0L130.36-8.58ZM140.25-7.64L138.19-7.64L138.19-4.97L140.25-4.97Q142.08-4.92 142.03-6.38L142.03-6.38Q142.03-7.64 140.25-7.64L140.25-7.64ZM140.72 0L137.02 0L137.02-8.58L140.81-8.58Q143.11-8.48 143.20-6.42L143.20-6.42Q143.20-5.16 142.08-4.64L142.08-4.64Q143.67-4.08 143.67-2.53L143.67-2.53Q143.53-0.09 140.72 0L140.72 0ZM140.44-3.98L138.19-3.98L138.19-0.98L140.67-0.98Q142.45-1.03 142.50-2.53L142.50-2.53Q142.50-3.98 140.44-3.98L140.44-3.98ZM151.78-4.27L151.78-4.27Q151.59-7.64 148.78-7.83L148.78-7.83Q145.92-7.69 145.78-4.27L145.78-4.27Q145.92-0.94 148.78-0.80L148.78-0.80Q151.59-0.98 151.78-4.27ZM152.95-4.27L152.95-4.27Q152.67 0 148.78 0.14L148.78 0.14Q144.84 0 144.56-4.27L144.56-4.27Q144.80-8.72 148.78-8.81L148.78-8.81Q152.67-8.67 152.95-4.27ZM161.06-8.58L158.16-4.41L161.20 0L159.75 0L157.41-3.52L155.06 0L153.66 0L156.75-4.41L153.84-8.58L155.30-8.58L157.45-5.30L159.66-8.58L161.06-8.58Z" transform="translate(-0.1875, 8.8125)"></path></g></g></g></g><mask id="8c0ca6a1-4cbb-432a-a107-875b11ae8651"><g fill-rule="" class="tp-name iconsvg-namesvg" transform="translate(0,0)" fill="white"><g><path d="M19.32-17.21L24.96-17.21L24.96-16.38L22.78-16.08L18.26 0.09L16.59 0.09L12.46-13.15L8.47 0.09L6.77 0.09L2.04-16.19L0.26-16.38L0.26-17.21L7.66-17.21L7.66-16.38L5.41-16.15L8.65-3.78L12.32-16.10L10.00-16.38L10.00-17.21L17.24-17.21L17.24-16.38L14.73-16.10L18.35-3.69L21.57-16.08L19.32-16.38L19.32-17.21ZM29.42-7.12L29.42-7.12L33.38-7.12Q34.15-7.12 34.43-7.52Q34.71-7.91 34.71-8.84L34.71-8.84Q34.71-10.23 34.03-11.08Q33.36-11.92 32.29-11.92L32.29-11.92Q31.11-11.92 30.31-10.73Q29.51-9.53 29.42-7.12ZM37.44-6.26L37.44-6.26L29.42-6.26Q29.49-3.71 30.61-2.44Q31.74-1.16 33.52-1.16L33.52-1.16Q35.68-1.16 37.00-2.95L37.00-2.95L37.47-2.62Q36.77-1.18 35.48-0.41Q34.19 0.37 32.48 0.37L32.48 0.37Q29.67 0.37 27.93-1.38Q26.19-3.13 26.19-6.22L26.19-6.22Q26.19-9.21 28.06-11.00Q29.93-12.78 32.50-12.78L32.50-12.78Q34.84-12.78 36.22-11.36Q37.61-9.93 37.61-7.70L37.61-7.70Q37.61-6.82 37.44-6.26ZM44.15-10.32L44.15-10.32L44.15-2.11Q45.24-1.11 46.56-1.11L46.56-1.11Q49.81-1.11 49.81-6.26L49.81-6.26Q49.81-8.82 48.95-10.08Q48.09-11.34 46.65-11.34L46.65-11.34Q45.31-11.34 44.15-10.32ZM44.19-18.79L44.10-15.10L44.10-11.02Q45.77-12.78 48.02-12.78L48.02-12.78Q50.23-12.78 51.64-11.05Q53.06-9.33 53.06-6.29L53.06-6.29Q53.06-3.39 51.58-1.51Q50.11 0.37 47.77 0.37L47.77 0.37Q45.52 0.37 44.05-1.35L44.05-1.35L43.68 0.28L39.39 0L39.39-0.72L41.08-0.90Q41.13-3.60 41.13-5.45L41.13-5.45L41.13-17.19L39.25-17.35L39.25-18.00L43.85-19.00L44.19-18.79ZM59.50-19.42L59.50-19.42L59.69-19.58Q62.94-19.30 63.82-17.70L63.82-17.70Q64.33-16.70 63.70-15.89L63.70-15.89Q63.08-15.10 62.03-15.45L62.03-15.45Q61.75-15.54 61.48-15.73L61.48-15.73Q61.13-17.70 59.50-19.42ZM59.25-4.85L59.25-4.85L62.38-4.85L62.38-7.91L59.30-7.91L59.30-6.38Q59.30-5.36 59.25-4.85ZM62.38-8.58L62.38-11.37L59.30-11.37L59.30-8.58L62.38-8.58ZM59.71-12.04L64.96-12.04L64.96-0.90Q64.96 0.53 64.38 1.18L64.38 1.18Q63.80 1.86 61.94 2.00L61.94 2.00Q61.89 0.79 61.59 0.26L61.59 0.26Q61.20-0.35 60.22-0.53L60.22-0.53L60.22-0.84Q61.57-0.74 61.99-0.74L61.99-0.74Q62.38-0.74 62.38-1.16L62.38-1.16L62.38-4.18L59.20-4.18Q58.99-2.20 58.14-0.60L58.14-0.60Q57.28 0.97 55.35 2.16L55.35 2.16L55.14 1.95Q55.86 0.86 56.23-0.65L56.23-0.65Q56.60-2.18 56.65-3.32L56.65-3.32Q56.72-4.45 56.72-6.38L56.72-6.38L56.72-13.11L59.71-12.04ZM66.95-12.55L69.43-12.25L69.43-2.90Q69.43-2.74 68.76-2.51L68.76-2.51Q68.09-2.30 67.42-2.30L67.42-2.30L66.95-2.30L66.95-12.55ZM71.57-1.14L71.57-1.14L71.57-13.27L74.17-12.94L74.17-1.00Q74.17 0.51 73.49 1.18L73.49 1.18Q72.84 1.88 70.71 2.06L70.71 2.06Q70.64 0.81 70.15 0.28L70.15 0.28Q69.55-0.32 68.04-0.58L68.04-0.58L68.04-0.88Q70.59-0.74 71.08-0.74L71.08-0.74Q71.36-0.74 71.45-0.81L71.45-0.81Q71.57-0.90 71.57-1.14ZM67.88-15.13L76.56-15.13L76.56-14.48L54.91-14.48L54.73-15.13L67.14-15.13Q68.23-17.49 68.83-19.67L68.83-19.67L71.75-18.72Q70.06-16.63 67.88-15.13L67.88-15.13ZM79.85-19.32L79.85-19.32L80.08-19.42Q82.84-18.51 83.33-16.91L83.33-16.91Q83.65-15.87 82.91-15.24L82.91-15.24Q82.17-14.59 81.22-15.15L81.22-15.15Q81.03-15.26 80.85-15.45L80.85-15.45Q80.87-17.21 79.85-19.32ZM86.67-14.43L86.67-13.76L78.11-13.76L77.92-14.43L86.67-14.43ZM78.67-12.78L78.67-12.78L79.01-12.90Q81.75-10.05 81.61-7.33L81.61-7.33Q81.54-5.85 80.73-5.29L80.73-5.29Q80.01-4.78 79.48-5.54L79.48-5.54Q79.41-5.64 79.36-5.73L79.36-5.73Q79.53-6.82 79.36-9.05L79.36-9.05Q79.22-11.27 78.67-12.78ZM83.12-13.11L83.12-13.11L85.46-12.32Q84.30-7.61 82.98-4.34L82.98-4.34Q83.84-4.57 86.02-5.27L86.02-5.27L86.07-5.01Q83.07-2.62 79.71-0.60L79.71-0.60Q79.57-0.09 79.13 0.07L79.13 0.07L77.69-3.06Q79.06-3.29 82.19-4.11L82.19-4.11Q82.82-9.00 83.12-13.11ZM96.37-1.18L96.37-7.35L95.00-7.35L95.00-0.86Q95.42-0.79 96.04-0.79L96.04-0.79Q96.37-0.79 96.37-1.18L96.37-1.18ZM99.22-10.49L99.22-10.49L93.47-10.49Q92.08-8.91 91.08-8.00L91.08-8.00L98.78-8.00L98.78-0.90Q98.78 0.53 98.29 1.16L98.29 1.16Q97.81 1.81 96.14 1.97L96.14 1.97Q96.14 0.65 95.95 0.21L95.95 0.21Q95.69-0.35 95.00-0.53L95.00-0.53L95.00-0.21Q95.00-0.16 94.84-0.05L94.84-0.05Q94.67 0.05 94.30 0.14Q93.93 0.23 93.51 0.23L93.51 0.23L93.21 0.23L93.21-7.35L91.84-7.35L91.84 0.35Q91.84 0.42 91.68 0.51L91.68 0.51Q91.52 0.63 91.15 0.72L91.15 0.72Q90.78 0.84 90.36 0.84L90.36 0.84L90.06 0.84L90.06-7.35L88.67-7.35L88.67 1.21Q88.67 1.42 87.99 1.69Q87.32 1.97 86.62 1.97L86.62 1.97L86.28 1.97L86.28-9.05L90.10-8.00Q90.43-9.28 90.57-10.49L90.57-10.49L85.93-10.49L85.74-11.16L96.37-11.16L97.34-12.41Q96.78-12.32 96.41-12.32L96.41-12.32L96.00-12.32L96.00-13.04L86.83-13.04L86.83-18.26L89.18-17.96L89.18-13.69L91.40-13.69L91.40-19.65L93.77-19.37L93.77-13.69L96.00-13.69L96.00-18.26L98.39-17.98L98.39-12.85Q98.39-12.71 97.85-12.55L97.85-12.55Q98.99-11.67 99.85-10.86L99.85-10.86Q99.75-10.49 99.22-10.49ZM113.46-0.49L122.93-0.49L122.93 0.16Q122.93 0.16 101.36 0.16L101.36 0.16L101.17-0.49L110.47-0.49L110.47-15.38L102.89-15.38L102.70-16.05L121.51-16.05L121.51-15.38L113.46-15.38L113.46-0.49ZM124.62 2.04L124.62 2.04L124.48 1.79Q126.41 0.77 128.22-0.77Q130.03-2.30 130.93-3.64L130.93-3.64L133.07-1.97Q131.65-0.53 129.36 0.46L129.36 0.46Q127.08 1.46 124.62 2.04ZM136.62-2.69L136.62-2.69L136.71-2.99Q143.09-2.32 144.74-0.28L144.74-0.28Q145.55 0.72 144.90 1.53L144.90 1.53Q144.32 2.23 143.34 2.04L143.34 2.04Q142.79 1.95 142.37 1.53L142.37 1.53Q140.35-1.11 136.62-2.69ZM139.22-7.26L131.70-7.26L131.70-4.41L139.22-4.41L139.22-7.26ZM139.22-14.62L139.22-17.38L131.70-17.38L131.70-14.62L139.22-14.62ZM139.22-7.91L139.22-10.65L131.70-10.65L131.70-7.91L139.22-7.91ZM131.70-11.30L139.22-11.30L139.22-13.94L131.70-13.94L131.70-11.30ZM141.98-4.41L146.36-4.41L146.36-3.73L124.51-3.73L124.32-4.41L128.96-4.41L128.96-19.21L132.00-18.05L141.98-18.05L141.98-4.41ZM159.12-16.77L159.12-16.12L152.37-16.12Q150.61-13.59 148.03-12.09L148.03-12.09L147.78-12.32Q148.82-13.66 149.70-15.64L149.70-15.64Q150.61-17.61 151.09-19.74L151.09-19.74L153.55-18.61Q153.20-17.45 152.79-16.77L152.79-16.77L159.12-16.77ZM154.67-9.84L158.38-9.84L158.38-9.16L154.67-9.16L154.67-8.10Q157.29-7.21 157.80-5.68L157.80-5.68Q158.10-4.71 157.43-4.15L157.43-4.15Q156.73-3.60 155.87-4.22L155.87-4.22Q155.78-4.27 155.71-4.34L155.71-4.34Q155.55-5.75 154.67-7.26L154.67-7.26L154.67 1.28Q154.67 1.46 153.92 1.76Q153.18 2.06 152.46 2.06L152.46 2.06L151.95 2.06L151.95-4.11Q150.40-1.93 148.19-0.30L148.19-0.30L147.94-0.58Q150.47-3.80 151.53-9.16L151.53-9.16L148.47-9.16L148.29-9.84L151.95-9.84L151.95-12.94L154.41-12.71Q154.22-12.78 153.99-12.97L153.99-12.97Q153.92-14.34 152.93-15.57L152.93-15.57L153.11-15.71Q155.64-15.33 156.06-14.08L156.06-14.08Q156.31-13.32 155.66-12.83L155.66-12.83Q155.45-12.69 155.25-12.62L155.25-12.62L155.50-12.60Q155.43-12.06 154.67-11.95L154.67-11.95L154.67-9.84ZM160.98-3.62L160.98-0.28L164.83-0.28L164.83-3.62L160.98-3.62ZM164.83-8.19L164.83-11.32L160.98-11.32L160.98-8.19L164.83-8.19ZM164.83-7.54L160.98-7.54L160.98-4.29L164.83-4.29L164.83-7.54ZM161.09-11.99L167.42-11.99L167.42 1.02Q167.40 1.18 166.64 1.46L166.64 1.46Q165.87 1.76 165.27 1.76L165.27 1.76L164.83 1.76L164.83 0.39L160.98 0.39L160.98 1.11Q160.98 1.35 160.28 1.67Q159.58 2.00 158.82 2.00L158.82 2.00L158.42 2.00L158.42-13.11L161.09-11.99ZM162.11-15.61L162.11-15.61L162.32-15.75Q164.97-15.54 165.52-14.31L165.52-14.31Q165.87-13.55 165.27-12.99L165.27-12.99Q164.59-12.36 163.69-12.88L163.69-12.88Q163.60-12.92 163.50-12.99L163.50-12.99Q163.34-14.38 162.11-15.61ZM161.93-16.77L169.26-16.77L169.26-16.12L161.46-16.12Q159.82-13.99 157.75-12.78L157.75-12.78L157.47-12.97Q159.24-15.61 160.19-19.72L160.19-19.72L162.72-18.54Q162.53-17.77 161.93-16.77L161.93-16.77Z" transform="translate(-0.2551855895196507, 19.74208515283843)"></path></g>       </g> <rect fill="#000" x="0" y="0" width="165.00999450683594" height="12.950000762939453" transform="translate(1.9950027465820312, 26.899999618530273)"></rect><g fill-rule="" hollow-target="t-name" class="tp-slogan iconsvg-slogansvg" transform="translate(3.9950027465820312,28.899999618530273)" fill="#fff">  <g><path d="M5.67-7.13L5.63-7.13L3.66 0L2.44 0L0.19-8.58L1.41-8.58L3.05-1.59L3.09-1.59L5.02-8.58L6.28-8.58L8.20-1.59L8.25-1.59L9.84-8.58L11.11-8.58L8.86 0L7.64 0L5.67-7.13ZM13.50-1.03L18.66-1.03L18.66 0L12.33 0L12.33-8.58L18.56-8.58L18.56-7.59L13.50-7.59L13.50-4.92L18.19-4.92L18.19-3.89L13.50-3.89L13.50-1.03ZM23.39-7.64L21.33-7.64L21.33-4.97L23.39-4.97Q25.22-4.92 25.17-6.38L25.17-6.38Q25.17-7.64 23.39-7.64L23.39-7.64ZM23.86 0L20.16 0L20.16-8.58L23.95-8.58Q26.25-8.48 26.34-6.42L26.34-6.42Q26.34-5.16 25.22-4.64L25.22-4.64Q26.81-4.08 26.81-2.53L26.81-2.53Q26.67-0.09 23.86 0L23.86 0ZM23.58-3.98L21.33-3.98L21.33-0.98L23.81-0.98Q25.59-1.03 25.64-2.53L25.64-2.53Q25.64-3.98 23.58-3.98L23.58-3.98ZM36.98-3.89L32.77-3.89L32.77 0L31.59 0L31.59-8.58L37.55-8.58L37.55-7.59L32.77-7.59L32.77-4.92L36.98-4.92L36.98-3.89ZM42.84-3.70L40.03-3.70L40.03 0L38.86 0L38.86-8.58L42.84-8.58Q45.70-8.58 45.70-6.28L45.70-6.28Q45.70-4.88 44.48-4.22L44.48-4.22Q45.52-3.94 45.52-2.58L45.52-2.58L45.61-1.03Q45.56-0.38 46.03-0.19L46.03-0.19L46.03 0L44.58 0Q44.44-0.61 44.39-2.16L44.39-2.16Q44.44-3.70 42.84-3.70L42.84-3.70ZM42.94-7.64L40.03-7.64L40.03-4.69L42.75-4.69Q44.48-4.69 44.48-6.19L44.48-6.19Q44.48-7.64 42.94-7.64L42.94-7.64ZM54.14-4.27L54.14-4.27Q53.95-7.64 51.14-7.83L51.14-7.83Q48.28-7.69 48.14-4.27L48.14-4.27Q48.28-0.94 51.14-0.80L51.14-0.80Q53.95-0.98 54.14-4.27ZM55.31-4.27L55.31-4.27Q55.03 0 51.14 0.14L51.14 0.14Q47.20 0 46.92-4.27L46.92-4.27Q47.16-8.72 51.14-8.81L51.14-8.81Q55.03-8.67 55.31-4.27ZM58.08-8.58L62.39-1.64L62.39-8.58L63.52-8.58L63.52 0L62.20 0L57.84-6.94L57.80-6.94L57.80 0L56.67 0L56.67-8.58L58.08-8.58ZM67.50-7.59L64.59-7.59L64.59-8.58L71.53-8.58L71.53-7.59L68.63-7.59L68.63 0L67.50 0L67.50-7.59ZM77.20-1.03L82.36-1.03L82.36 0L76.03 0L76.03-8.58L82.27-8.58L82.27-7.59L77.20-7.59L77.20-4.92L81.89-4.92L81.89-3.89L77.20-3.89L77.20-1.03ZM85.27-8.58L89.58-1.64L89.58-8.58L90.70-8.58L90.70 0L89.39 0L85.03-6.94L84.98-6.94L84.98 0L83.86 0L83.86-8.58L85.27-8.58ZM96 0L92.53 0L92.53-8.58L96.05-8.58Q99.52-8.39 99.66-4.41L99.66-4.41Q99.47-0.09 96 0L96 0ZM95.86-7.64L93.70-7.64L93.70-0.98L95.95-0.98Q98.39-1.13 98.48-4.31L98.48-4.31Q98.44-7.55 95.86-7.64L95.86-7.64ZM106.64-7.59L103.73-7.59L103.73-8.58L110.67-8.58L110.67-7.59L107.77-7.59L107.77 0L106.64 0L106.64-7.59ZM118.50-4.27L118.50-4.27Q118.31-7.64 115.50-7.83L115.50-7.83Q112.64-7.69 112.50-4.27L112.50-4.27Q112.64-0.94 115.50-0.80L115.50-0.80Q118.31-0.98 118.50-4.27ZM119.67-4.27L119.67-4.27Q119.39 0 115.50 0.14L115.50 0.14Q111.56 0 111.28-4.27L111.28-4.27Q111.52-8.72 115.50-8.81L115.50-8.81Q119.39-8.67 119.67-4.27ZM127.83-4.27L127.83-4.27Q127.64-7.64 124.83-7.83L124.83-7.83Q121.97-7.69 121.83-4.27L121.83-4.27Q121.97-0.94 124.83-0.80L124.83-0.80Q127.64-0.98 127.83-4.27ZM129-4.27L129-4.27Q128.72 0 124.83 0.14L124.83 0.14Q120.89 0 120.61-4.27L120.61-4.27Q120.84-8.72 124.83-8.81L124.83-8.81Q128.72-8.67 129-4.27ZM130.36-8.58L131.53-8.58L131.53-1.03L135.89-1.03L135.89 0L130.36 0L130.36-8.58ZM140.25-7.64L138.19-7.64L138.19-4.97L140.25-4.97Q142.08-4.92 142.03-6.38L142.03-6.38Q142.03-7.64 140.25-7.64L140.25-7.64ZM140.72 0L137.02 0L137.02-8.58L140.81-8.58Q143.11-8.48 143.20-6.42L143.20-6.42Q143.20-5.16 142.08-4.64L142.08-4.64Q143.67-4.08 143.67-2.53L143.67-2.53Q143.53-0.09 140.72 0L140.72 0ZM140.44-3.98L138.19-3.98L138.19-0.98L140.67-0.98Q142.45-1.03 142.50-2.53L142.50-2.53Q142.50-3.98 140.44-3.98L140.44-3.98ZM151.78-4.27L151.78-4.27Q151.59-7.64 148.78-7.83L148.78-7.83Q145.92-7.69 145.78-4.27L145.78-4.27Q145.92-0.94 148.78-0.80L148.78-0.80Q151.59-0.98 151.78-4.27ZM152.95-4.27L152.95-4.27Q152.67 0 148.78 0.14L148.78 0.14Q144.84 0 144.56-4.27L144.56-4.27Q144.80-8.72 148.78-8.81L148.78-8.81Q152.67-8.67 152.95-4.27ZM161.06-8.58L158.16-4.41L161.20 0L159.75 0L157.41-3.52L155.06 0L153.66 0L156.75-4.41L153.84-8.58L155.30-8.58L157.45-5.30L159.66-8.58L161.06-8.58Z" transform="translate(-0.1875, 8.8125)"></path></g></g></mask></svg>