<?xml version="1.0" encoding="UTF-8"?>
<svg width="15.9764557px" height="14.01px" viewBox="0 0 15.9764557 14.01" version="1.1" xmlns="http://www.w3.org/2000/svg" xmlns:xlink="http://www.w3.org/1999/xlink">
    <title>mene-fold2</title>
    <g id="页面-1" stroke="none" stroke-width="1" fill="none" fill-rule="evenodd">
        <g id="画板" transform="translate(-235.000000, -532.000000)" fill="#13161B">
            <g id="mene-fold2" transform="translate(235.000000, 532.000000)">
                <rect id="矩形备份-11" x="0" y="0" width="15.9764557" height="1.5" rx="0.150000006"></rect>
                <rect id="矩形备份-12" x="0" y="12.51" width="15.9764557" height="1.5" rx="0.150000006"></rect>
                <path d="M2.33362391,5.33744477 L5.1815948,8.54491616 C5.23659889,8.60686344 5.23097032,8.70167126 5.16902304,8.75667535 C5.1415731,8.78104864 5.1061384,8.79450989 5.06942932,8.79450989 L-0.626512453,8.79450989 C-0.709355169,8.79450989 -0.776512459,8.7273526 -0.776512459,8.64450988 C-0.776512459,8.60780081 -0.763051212,8.5723661 -0.738677925,8.54491616 L2.10929296,5.33744477 C2.16429705,5.27549749 2.25910487,5.26986892 2.32105215,5.32487302 C2.32548762,5.32881135 2.32968558,5.3330093 2.33362391,5.33744477 Z" id="三角形备份" transform="translate(2.221458, 7.002815) rotate(90.000000) translate(-2.221458, -7.002815) "></path>
                <rect id="矩形备份-13" x="5.47645569" y="4.17" width="10.5" height="1.5" rx="0.150000006"></rect>
                <rect id="矩形备份-14" x="5.47645569" y="8.34" width="10.5" height="1.5" rx="0.150000006"></rect>
            </g>
        </g>
    </g>
</svg>